<svg width="38" height="33" viewBox="0 0 38 33" fill="none" xmlns="http://www.w3.org/2000/svg">
<path d="M1.25 3C1.25 1.75736 2.25736 0.75 3.5 0.75H9.04103C9.86893 0.75 10.63 1.20466 11.0223 1.93369L11.7838 3.34862C12.4377 4.56366 13.7061 5.32143 15.086 5.32143H28.4457C29.7041 5.32143 30.7179 6.35356 30.6953 7.61179L30.3109 29.0404C30.2889 30.2671 29.2882 31.25 28.0613 31.25H3.5C2.25736 31.25 1.25 30.2426 1.25 29V3Z" fill="#FFCF53" stroke="black" stroke-width="1.5"/>
<path d="M4.7938 10.6014C4.9867 9.52974 5.91932 8.75 7.00821 8.75H33.9118C35.314 8.75 36.3746 10.0186 36.1262 11.3986L32.7062 30.3986C32.5133 31.4703 31.5807 32.25 30.4918 32.25H3.58821C2.18604 32.25 1.1254 30.9814 1.3738 29.6014L4.7938 10.6014Z" fill="#FFCF53" stroke="black" stroke-width="1.5"/>
</svg>
