<svg width="40" height="40" viewBox="0 0 40 40" fill="none" xmlns="http://www.w3.org/2000/svg">
<path fill-rule="evenodd" clip-rule="evenodd" d="M20 22.5C21.7682 22.5 23.4638 21.7976 24.7141 20.5474C25.9643 19.2972 26.6667 17.6015 26.6667 15.8334C26.6667 14.0652 25.9643 12.3696 24.7141 11.1193C23.4638 9.86907 21.7682 9.16669 20 9.16669C18.2319 9.16669 16.5362 9.86907 15.286 11.1193C14.0358 12.3696 13.3334 14.0652 13.3334 15.8334C13.3334 17.6015 14.0358 19.2972 15.286 20.5474C16.5362 21.7976 18.2319 22.5 20 22.5ZM20 20.8334C20.6567 20.8334 21.3068 20.704 21.9135 20.4528C22.5201 20.2015 23.0713 19.8332 23.5356 19.3689C23.9999 18.9046 24.3682 18.3534 24.6194 17.7468C24.8707 17.1401 25 16.49 25 15.8334C25 15.1767 24.8707 14.5266 24.6194 13.9199C24.3682 13.3133 23.9999 12.7621 23.5356 12.2978C23.0713 11.8335 22.5201 11.4652 21.9135 11.214C21.3068 10.9627 20.6567 10.8334 20 10.8334C18.674 10.8334 17.4022 11.3601 16.4645 12.2978C15.5268 13.2355 15 14.5073 15 15.8334C15 17.1594 15.5268 18.4312 16.4645 19.3689C17.4022 20.3066 18.674 20.8334 20 20.8334Z" fill="#353535"/>
<path fill-rule="evenodd" clip-rule="evenodd" d="M36.6667 20C36.6667 29.205 29.205 36.6667 20 36.6667C10.795 36.6667 3.33337 29.205 3.33337 20C3.33337 10.795 10.795 3.33334 20 3.33334C29.205 3.33334 36.6667 10.795 36.6667 20ZM28.025 32.675C25.6258 34.198 22.8418 35.0046 20 35C17.0902 35.0047 14.2423 34.1589 11.8067 32.5667C11.6067 32.3167 11.4042 32.0583 11.1984 31.7917C10.9605 31.4792 10.8322 31.0969 10.8334 30.7042C10.8334 29.8067 11.4784 29.0542 12.3409 28.9283C18.045 28.095 21.9725 28.1667 27.6842 28.9575C28.0978 29.0175 28.4758 29.2251 28.7483 29.542C29.0208 29.8589 29.1694 30.2637 29.1667 30.6817C29.1667 31.0817 29.0292 31.47 28.7809 31.7733C28.525 32.085 28.2725 32.3858 28.025 32.675ZM30.8209 30.3883C30.6875 28.8283 29.5034 27.5267 27.9125 27.3067C22.0659 26.4975 17.9792 26.42 12.1 27.2792C10.5 27.5125 9.32087 28.8258 9.18087 30.39C6.49364 27.5992 4.99474 23.8742 5.00004 20C5.00004 11.7158 11.7159 5.00001 20 5.00001C28.2842 5.00001 35 11.7158 35 20C35.0054 23.8734 33.5071 27.5977 30.8209 30.3883Z" fill="#353535"/>
</svg>
